. 
  
http://www.torrentday.com   -    Your Key To The Scene.

Now TvTeam with [No-RAR] Releases.

(((((((((((((= Enjoy No RAR releases =))))))))))))))))))))

...................................NFO:....................................

.
                                                     
                                                   
                                                         
                                                          
                                                           
                                                          
                                                          
                                                          
                                                           
                                                         
                                                          
                                                        
                                                      
                                     
                                                 
                                                   
                                             
                                              
                                                     
                                                      
                                                      
                                                      
                                                    
                                                     
                                                   
                                                     
                                                     
                                                      
                                                     
                                                      
                                                    
                 ARTiCHOKE                        
                                                
                      
                                                        
                                                      
                                                      
                                               
                                          
                                                   
                                            
                                                    
                                                       
                                                        
                                                      
                                                
                                                        
                                                 
                                              
                                                  
                                                
                                                  
                                        

      
                                
      SPRiNTER proudly presents...     
                                
      
  
http://www.imdb.com/title/tt0296074/

 Date: 2010.05

 Director: Ron Merk
 Genre: Animation / Family
 Plot: An adventure story about a young Marco whose ancestor was
       the descendant of the famous historical Marco Polo, takes
       an exciting journey to the mythical kingdom of Xanadu. He
       must travel back to the land of the Kubla Khan to save it
       from an evil villain who is a magician, known as Foo-Ling
       who does not want Marco to reach Xanadu. The help of his
       friends and the great powers of the medallion enable Marco
       to chase after Foo-Ling through space and time, and one day
       bring him back to justice.



 Cast:
	Paul Ainsley	  ... 	Wong Wei
	Alan Altshuld	  ... 	Pangu
	Elea Breitling	  ... 	Princess Ming Yu (as Elea Bartling)
	Nicholas Gonzalez ... 	Young Marco
	John C. Hyke	  ... 	Malgor the Vulture
	Michael Kostroff  ... 	Kubla Khan
	Robert Kramer	  ... 	Helmsman
	John Matthew	  ... 	The Delicate Dinosaur / Marco Polo
	Tim Byron Owen	  ... 	Space Station Captain
	Tony Pope	  ... 	Babu / Foo-Ling / Reginald the Seagull


      
                 
      Release notes     
                 
      

	   Enjoy!


      
           
     Greetings    
           
      


NTX aAF FiCO HNR CiNEFiLE AEN HUMANiSM


      
           
      Details     
           
      

Format                           : AVI
Format/Info                      : Audio Video Interleave
File size                        : 700 MiB
Duration                         : 1h 20mn
Overall bit rate                 : 1 223 Kbps
Writing application              : VirtualDubMod 1.5.10.2 (build 2540/release)
Writing library                  : VirtualDubMod build 2540/release

Video
ID                               : 0
Format                           : MPEG-4 Visual
Format profile                   : Advanced Simple@L5
Format settings, BVOP            : Yes
Format settings, QPel            : No
Format settings, GMC             : No warppoints
Format settings, Matrix          : Default (H.263)
Muxing mode                      : Packed bitstream
Codec ID                         : XVID
Codec ID/Hint                    : XviD
Duration                         : 1h 20mn
Bit rate                         : 1 113 Kbps
Width                            : 640 pixels
Height                           : 480 pixels
Display aspect ratio             : 4:3
Frame rate                       : 25.000 fps
Resolution                       : 8 bits
Colorimetry                      : 4:2:0
Scan type                        : Progressive
Bits/(Pixel*Frame)               : 0.145
Stream size                      : 637 MiB (91%)
Writing library                  : XviD 1.2.1 (UTC 2008-12-04)

Audio
ID                               : 1
Format                           : MPEG Audio
Format version                   : Version 1
Format profile                   : Layer 3
Codec ID                         : 55
Codec ID/Hint                    : MP3
Duration                         : 1h 20mn
Bit rate mode                    : Variable
Bit rate                         : 96.6 Kbps
Minimum bit rate                 : 32.0 Kbps
Channel(s)                       : 1 channel
Sampling rate                    : 48.0 KHz
Stream size                      : 55.3 MiB (8%)
Alignment                        : Aligned on interleaves
Interleave, duration             : 24 ms (0.60 video frame)
Interleave, preload duration     : 413 ms
Writing library                  : LAME3.97 
Encoding settings                : -m m -V 2 -q 3 -lowpass 18.6 --vbr-new -b 32